<?xml version="1.0" encoding="UTF-8"?>
<!DOCTYPE svg PUBLIC "-//W3C//DTD SVG 1.1//EN" "http://www.w3.org/Graphics/SVG/1.1/DTD/svg11.dtd">
<svg xmlns="http://www.w3.org/2000/svg" version="1.1" width="400px" height="400px" style="shape-rendering:geometricPrecision; text-rendering:geometricPrecision; image-rendering:optimizeQuality; fill-rule:evenodd; clip-rule:evenodd" xmlns:xlink="http://www.w3.org/1999/xlink">
<g><path style="opacity:0.408" fill="#72992f" d="M 209.5,24.5 C 205.882,22.4432 202.048,20.7765 198,19.5C 194.715,20.2065 191.548,21.2065 188.5,22.5C 190.508,20.7324 192.674,19.0657 195,17.5C 200.572,18.0342 205.406,20.3675 209.5,24.5 Z"/></g>
<g><path style="opacity:0.998" fill="#a5e33d" d="M 209.5,24.5 C 210.492,24.6716 211.158,24.3382 211.5,23.5C 212.5,25.1667 213.833,26.5 215.5,27.5C 216.659,29.2503 218.326,30.2503 220.5,30.5C 222.147,32.3264 224.147,33.6597 226.5,34.5C 227.492,34.3284 228.158,34.6618 228.5,35.5C 232.602,38.3921 236.935,41.0588 241.5,43.5C 242.107,43.3764 242.44,43.0431 242.5,42.5C 247.407,44.739 252.074,47.4057 256.5,50.5C 256.5,50.8333 256.5,51.1667 256.5,51.5C 261.502,55.0031 266.835,58.0031 272.5,60.5C 275.127,61.5464 277.627,62.8798 280,64.5C 280.333,64.1667 280.667,63.8333 281,63.5C 281.284,65.8856 282.284,66.5523 284,65.5C 285.365,67.8598 287.365,69.5265 290,70.5C 291.107,69.2881 291.607,69.6214 291.5,71.5C 294.999,73.7505 298.665,75.7505 302.5,77.5C 304.086,78.4132 305.586,78.4132 307,77.5C 307.309,78.7659 307.809,79.9326 308.5,81C 313.31,83.5728 317.976,86.4061 322.5,89.5C 323.167,89.1667 323.833,88.8333 324.5,88.5C 327.909,91.7845 331.909,94.9512 336.5,98C 338.791,97.1894 340.625,98.0228 342,100.5C 342.333,100.167 342.667,99.8333 343,99.5C 344.193,101.497 345.693,103.164 347.5,104.5C 349.46,106.156 351.46,107.823 353.5,109.5C 353.557,110.609 353.89,111.609 354.5,112.5C 353.233,111.913 352.233,111.913 351.5,112.5C 351.709,113.086 352.043,113.586 352.5,114C 350.723,119.253 350.556,124.753 352,130.5C 352.333,129.833 352.667,129.167 353,128.5C 353.667,131.5 353.667,134.5 353,137.5C 352.781,136.062 352.281,134.729 351.5,133.5C 351.438,135.26 351.438,137.094 351.5,139C 348.518,139.498 345.518,139.665 342.5,139.5C 341.748,173.993 341.081,218.326 340.5,272.5C 340.667,220.832 340.5,169.166 340,117.5C 332.855,111.678 325.022,107.011 316.5,103.5C 313.992,101.076 310.992,99.4097 307.5,98.5C 303.836,95.6654 299.836,93.332 295.5,91.5C 294.833,91.5 294.167,91.5 293.5,91.5C 293.5,91.1667 293.5,90.8333 293.5,90.5C 284.138,83.4838 274.138,77.4838 263.5,72.5C 261.253,72.0792 259.087,72.0792 257,72.5C 256.331,70.4098 255.164,68.7432 253.5,67.5C 250.839,64.4977 247.505,62.4977 243.5,61.5C 240.506,59.0002 237.173,57.0002 233.5,55.5C 232.508,55.6716 231.842,55.3382 231.5,54.5C 227.813,51.5003 223.813,48.8336 219.5,46.5C 218.893,46.6236 218.56,46.9569 218.5,47.5C 215.787,45.8283 213.12,44.1616 210.5,42.5C 208.664,40.412 206.331,39.0787 203.5,38.5C 201.849,37.0299 200.015,35.6966 198,34.5C 196.698,35.0848 195.531,35.7515 194.5,36.5C 191.221,40.1472 187.221,42.8138 182.5,44.5C 181.749,45.376 181.249,46.376 181,47.5C 180.536,46.9056 180.369,46.2389 180.5,45.5C 180.631,44.7611 180.464,44.0944 180,43.5C 174.323,47.0297 168.823,50.6963 163.5,54.5C 163.539,56.2239 163.206,56.5573 162.5,55.5C 162.44,54.9569 162.107,54.6236 161.5,54.5C 158.923,55.9431 156.59,57.6098 154.5,59.5C 149.438,61.0661 145.104,63.7328 141.5,67.5C 138.965,70.5872 135.632,72.2538 131.5,72.5C 123.301,76.3804 115.635,81.047 108.5,86.5C 105.681,88.4188 103.014,90.5855 100.5,93C 98.8659,93.4935 97.1992,93.6602 95.5,93.5C 92.2957,94.3833 89.6291,96.0499 87.5,98.5C 84.0516,99.3901 81.0516,101.057 78.5,103.5C 77.6851,104.837 76.5185,105.837 75,106.5C 74.7787,109.943 73.7787,110.276 72,107.5C 71.2904,108.973 70.1238,109.64 68.5,109.5C 62.8507,110.99 58.184,113.99 54.5,118.5C 53.8333,136.671 53.1667,155.004 52.5,173.5C 51.0353,174.609 50.0353,174.109 49.5,172C 49.8333,171 50.1667,170 50.5,169C 49.0929,167.548 47.5929,167.715 46,169.5C 43.213,168.778 42.3796,167.278 43.5,165C 42.0058,160.501 41.0058,156.001 40.5,151.5C 40.3334,138.496 40.5001,125.496 41,112.5C 43.0007,109.669 45.1673,107.003 47.5,104.5C 47.8212,102.952 48.8212,102.285 50.5,102.5C 53.3311,101.921 55.6644,100.588 57.5,98.5C 59.0788,96.0645 61.4121,94.7311 64.5,94.5C 67.3311,93.9213 69.6644,92.588 71.5,90.5C 71.3932,88.6214 71.8932,88.2881 73,89.5C 73.8159,88.1772 74.9826,87.5106 76.5,87.5C 78.674,87.2503 80.3406,86.2503 81.5,84.5C 81.8417,83.6618 82.5084,83.3284 83.5,83.5C 87.0495,82.2768 90.0495,80.2768 92.5,77.5C 94.153,77.3404 95.4863,76.6737 96.5,75.5C 98.9169,72.3624 102.25,70.6958 106.5,70.5C 111.343,68.5824 115.677,65.9157 119.5,62.5C 123.173,60.9998 126.506,58.9998 129.5,56.5C 132.992,55.5903 135.992,53.9236 138.5,51.5C 144.565,48.0498 150.731,44.7165 157,41.5C 158.308,42.1513 159.141,41.4846 159.5,39.5C 159.973,38.0937 160.973,37.427 162.5,37.5C 164.153,37.3404 165.486,36.6737 166.5,35.5C 166.842,34.6618 167.508,34.3284 168.5,34.5C 170.853,33.6597 172.853,32.3264 174.5,30.5C 174.863,28.2227 175.863,27.5561 177.5,28.5C 178.696,28.1543 178.696,27.6543 177.5,27C 178.793,26.51 180.127,26.3433 181.5,26.5C 184.331,25.9213 186.664,24.588 188.5,22.5C 191.548,21.2065 194.715,20.2065 198,19.5C 202.048,20.7765 205.882,22.4432 209.5,24.5 Z"/></g>
<g><path style="opacity:0.004" fill="#9ac83d" d="M 211.5,23.5 C 210.833,22.1667 210.833,22.1667 211.5,23.5 Z"/></g>
<g><path style="opacity:1" fill="#6b932b" d="M 188.5,22.5 C 186.664,24.588 184.331,25.9213 181.5,26.5C 183.34,24.3311 185.674,22.9977 188.5,22.5 Z"/></g>
<g><path style="opacity:0.063" fill="#7ba130" d="M 220.5,29.5 C 220.5,29.8333 220.5,30.1667 220.5,30.5C 218.326,30.2503 216.659,29.2503 215.5,27.5C 216.117,27.3893 216.617,27.056 217,26.5C 217.72,28.0557 218.887,29.0557 220.5,29.5 Z"/></g>
<g><path style="opacity:0.012" fill="#9ece40" d="M 220.5,28.5 C 221.833,29.1667 221.833,29.1667 220.5,28.5 Z"/></g>
<g><path style="opacity:0.227" fill="#749e2e" d="M 220.5,30.5 C 222.947,30.615 224.947,31.615 226.5,33.5C 226.5,33.8333 226.5,34.1667 226.5,34.5C 224.147,33.6597 222.147,32.3264 220.5,30.5 Z"/></g>
<g><path style="opacity:0.878" fill="#779f2f" d="M 174.5,30.5 C 172.853,32.3264 170.853,33.6597 168.5,34.5C 169.733,32.2036 171.733,30.8702 174.5,30.5 Z"/></g>
<g><path style="opacity:0.004" fill="#9cc940" d="M 226.5,33.5 C 226.897,32.475 227.563,32.3083 228.5,33C 227.906,33.4643 227.239,33.631 226.5,33.5 Z"/></g>
<g><path style="opacity:0.086" fill="#8db838" d="M 203.5,38.5 C 200.662,36.5818 197.662,35.9151 194.5,36.5C 195.531,35.7515 196.698,35.0848 198,34.5C 200.015,35.6966 201.849,37.0299 203.5,38.5 Z"/></g>
<g><path style="opacity:0.984" fill="#5e8625" d="M 166.5,35.5 C 165.486,36.6737 164.153,37.3404 162.5,37.5C 163.287,35.8958 164.62,35.2291 166.5,35.5 Z"/></g>
<g><path style="opacity:0.231" fill="#759d2e" d="M 228.5,35.5 C 233.408,37.2873 238.075,39.6206 242.5,42.5C 242.44,43.0431 242.107,43.3764 241.5,43.5C 236.935,41.0588 232.602,38.3921 228.5,35.5 Z"/></g>
<g><path style="opacity:0.957" fill="#759c2f" d="M 203.5,38.5 C 206.331,39.0787 208.664,40.412 210.5,42.5C 207.674,42.0023 205.34,40.6689 203.5,38.5 Z"/></g>
<g><path style="opacity:0.008" fill="#a0cd41" d="M 149.5,43.5 C 148.833,42.1667 148.833,42.1667 149.5,43.5 Z"/></g>
<g><path style="opacity:0.196" fill="#769c30" d="M 180.5,45.5 C 174.956,48.7716 169.289,51.7716 163.5,54.5C 168.823,50.6963 174.323,47.0297 180,43.5C 180.464,44.0944 180.631,44.7611 180.5,45.5 Z"/></g>
<g><path style="opacity:0.737" fill="#7ca831" d="M 159.5,39.5 C 159.141,41.4846 158.308,42.1513 157,41.5C 150.731,44.7165 144.565,48.0498 138.5,51.5C 139.058,50.2101 140.058,49.3768 141.5,49C 141.167,48.6667 140.833,48.3333 140.5,48C 143.861,47.1196 146.861,45.6196 149.5,43.5C 152.833,42.1667 156.167,40.8333 159.5,39.5 Z"/></g>
<g><path style="opacity:0.004" fill="#a1cd41" d="M 256.5,50.5 C 256.369,49.7611 256.536,49.0944 257,48.5C 257.692,49.4368 257.525,50.1034 256.5,50.5 Z"/></g>
<g><path style="opacity:0.004" fill="#86b037" d="M 218.5,47.5 C 218.56,46.9569 218.893,46.6236 219.5,46.5C 223.813,48.8336 227.813,51.5003 231.5,54.5C 230.504,54.4142 229.671,54.7476 229,55.5C 228.626,54.5838 228.126,53.7504 227.5,53C 225.939,52.6824 224.772,51.8491 224,50.5C 223.667,50.8333 223.333,51.1667 223,51.5C 222.208,49.3563 220.708,48.023 218.5,47.5 Z"/></g>
<g><path style="opacity:0.925" fill="#75a02f" d="M 138.5,51.5 C 135.992,53.9236 132.992,55.5903 129.5,56.5C 132.008,54.0764 135.008,52.4097 138.5,51.5 Z"/></g>
<g><path style="opacity:0.494" fill="#799c31" d="M 162.5,55.5 C 160.117,57.3582 157.45,58.6916 154.5,59.5C 156.59,57.6098 158.923,55.9431 161.5,54.5C 162.107,54.6236 162.44,54.9569 162.5,55.5 Z"/></g>
<g><path style="opacity:0.502" fill="#7ea435" d="M 233.5,55.5 C 237.173,57.0002 240.506,59.0002 243.5,61.5C 239.455,60.8229 236.122,58.8229 233.5,55.5 Z"/></g>
<g><path style="opacity:0.804" fill="#7ba531" d="M 256.5,51.5 C 258.17,51.7512 259.67,52.4178 261,53.5C 261.414,53.0426 261.914,52.7093 262.5,52.5C 265.864,55.1751 269.197,57.8418 272.5,60.5C 266.835,58.0031 261.502,55.0031 256.5,51.5 Z"/></g>
<g><path style="opacity:0.973" fill="#7aa431" d="M 129.5,56.5 C 126.506,58.9998 123.173,60.9998 119.5,62.5C 120.798,60.8046 122.298,59.1379 124,57.5C 124.333,57.8333 124.667,58.1667 125,58.5C 126.11,56.9632 127.61,56.2965 129.5,56.5 Z"/></g>
<g><path style="opacity:0.796" fill="#80a735" d="M 154.5,59.5 C 151.656,62.2985 148.323,64.4652 144.5,66C 145.167,66.6667 145.833,67.3333 146.5,68C 144.749,67.6912 143.082,67.5246 141.5,67.5C 145.104,63.7328 149.438,61.0661 154.5,59.5 Z"/></g>
<g><path style="opacity:0.004" fill="#9bca3d" d="M 283.5,63.5 C 284.833,64.1667 284.833,64.1667 283.5,63.5 Z"/></g>
<g><path style="opacity:0.945" fill="#7ba531" d="M 119.5,62.5 C 115.677,65.9157 111.343,68.5824 106.5,70.5C 106.389,69.8826 106.056,69.3826 105.5,69C 108.191,69.0539 110.024,67.8872 111,65.5C 111.333,65.8333 111.667,66.1667 112,66.5C 113.577,63.4612 116.077,62.1279 119.5,62.5 Z"/></g>
<g><path style="opacity:0.043" fill="#90ba3f" d="M 243.5,61.5 C 247.505,62.4977 250.839,64.4977 253.5,67.5C 252.312,68.0476 251.145,68.3809 250,68.5C 248.587,65.396 246.42,63.0626 243.5,61.5 Z"/></g>
<g><path style="opacity:0.753" fill="#759e2f" d="M 291.5,71.5 C 295.548,72.3579 299.215,74.0245 302.5,76.5C 302.5,76.8333 302.5,77.1667 302.5,77.5C 298.665,75.7505 294.999,73.7505 291.5,71.5 Z"/></g>
<g><path style="opacity:0.008" fill="#7fa438" d="M 131.5,72.5 C 129.256,73.9296 127.423,75.9296 126,78.5C 125.586,78.0426 125.086,77.7093 124.5,77.5C 122.187,78.5005 120.187,79.8338 118.5,81.5C 115.477,83.6782 112.144,85.3449 108.5,86.5C 115.635,81.047 123.301,76.3804 131.5,72.5 Z"/></g>
<g><path style="opacity:0.004" fill="#a2d043" d="M 302.5,75.5 C 303.833,76.1667 303.833,76.1667 302.5,75.5 Z"/></g>
<g><path style="opacity:0.984" fill="#61882a" d="M 96.5,75.5 C 95.4863,76.6737 94.153,77.3404 92.5,77.5C 93.287,75.8958 94.6203,75.2291 96.5,75.5 Z"/></g>
<g><path style="opacity:0.988" fill="#7ea932" d="M 92.5,77.5 C 90.0495,80.2768 87.0495,82.2768 83.5,83.5C 85.3068,82.1638 86.8068,80.4971 88,78.5C 88.3333,78.8333 88.6667,79.1667 89,79.5C 89.8159,78.1772 90.9826,77.5106 92.5,77.5 Z"/></g>
<g><path style="opacity:0.008" fill="#aed954" d="M 118.5,81.5 C 119.289,81.7828 119.956,82.2828 120.5,83C 119.184,83.5281 118.517,83.0281 118.5,81.5 Z"/></g>
<g><path style="opacity:0.792" fill="#7da237" d="M 263.5,72.5 C 274.138,77.4838 284.138,83.4838 293.5,90.5C 290.442,90.2882 287.942,88.9548 286,86.5C 285.667,86.8333 285.333,87.1667 285,87.5C 280.62,82.8354 275.62,79.8354 270,78.5C 268.903,76.9474 267.57,75.614 266,74.5C 265.667,75.1667 265.333,75.8333 265,76.5C 264.079,75.2917 263.579,73.9584 263.5,72.5 Z"/></g>
<g><path style="opacity:0.516" fill="#769d30" d="M 81.5,84.5 C 80.3406,86.2503 78.674,87.2503 76.5,87.5C 77.0577,86.2101 78.0577,85.3768 79.5,85C 79.1667,84.6667 78.8333,84.3333 78.5,84C 79.5768,83.5304 80.5768,83.6971 81.5,84.5 Z"/></g>
<g><path style="opacity:0.004" fill="#a1ce42" d="M 74.5,85.5 C 75.8333,86.1667 75.8333,86.1667 74.5,85.5 Z"/></g>
<g><path style="opacity:1" fill="#638a29" d="M 71.5,90.5 C 69.6644,92.588 67.3311,93.9213 64.5,94.5C 66.3403,92.3311 68.6737,90.9977 71.5,90.5 Z"/></g>
<g><path style="opacity:0.4" fill="#85ac3d" d="M 293.5,91.5 C 294.167,92.8333 294.833,92.8333 295.5,91.5C 299.836,93.332 303.836,95.6654 307.5,98.5C 304.157,98.471 301.157,96.971 298.5,94C 296.423,93.8078 294.423,93.3078 292.5,92.5C 292.624,91.8933 292.957,91.56 293.5,91.5 Z"/></g>
<g><path style="opacity:0.184" fill="#7ca137" d="M 95.5,93.5 C 93.3709,95.9501 90.7043,97.6167 87.5,98.5C 89.6291,96.0499 92.2957,94.3833 95.5,93.5 Z"/></g>
<g><path style="opacity:0.165" fill="#83a63d" d="M 87.5,98.5 C 86.0131,99.8036 84.3464,100.97 82.5,102C 82.8333,102.333 83.1667,102.667 83.5,103C 81.82,102.229 80.1533,102.395 78.5,103.5C 81.0516,101.057 84.0516,99.3901 87.5,98.5 Z"/></g>
<g><path style="opacity:0.945" fill="#78a030" d="M 57.5,98.5 C 55.6644,100.588 53.3311,101.921 50.5,102.5C 51.3479,100.907 52.6813,99.7403 54.5,99C 55.448,98.5172 56.448,98.3505 57.5,98.5 Z"/></g>
<g><path style="opacity:0.969" fill="#80a73c" d="M 307.5,98.5 C 310.992,99.4097 313.992,101.076 316.5,103.5C 312.31,103.977 309.31,102.311 307.5,98.5 Z"/></g>
<g><path style="opacity:0.282" fill="#78a132" d="M 353.5,109.5 C 351.46,107.823 349.46,106.156 347.5,104.5C 348.117,104.389 348.617,104.056 349,103.5C 351.127,105.114 352.627,107.114 353.5,109.5 Z"/></g>
<g><path style="opacity:0.004" fill="#94c23f" d="M 354.5,108.5 C 355.833,109.167 355.833,109.167 354.5,108.5 Z"/></g>
<g><path style="opacity:0.257" fill="#88ad3c" d="M 316.5,103.5 C 325.022,107.011 332.855,111.678 340,117.5C 340.5,169.166 340.667,220.832 340.5,272.5C 340.662,274.527 340.495,276.527 340,278.5C 336.37,282.061 332.203,284.728 327.5,286.5C 329.481,284.697 331.648,283.03 334,281.5C 334.359,278.456 335.026,278.122 336,280.5C 337,279.5 338,278.5 339,277.5C 339.667,224.5 339.667,171.5 339,118.5C 334.547,114.945 329.38,111.612 323.5,108.5C 322.197,109.718 321.197,109.385 320.5,107.5C 319.914,107.709 319.414,108.043 319,108.5C 318.153,106.807 317.32,105.14 316.5,103.5 Z"/></g>
<g><path style="opacity:0.998" fill="#a6e53d" d="M 354.5,112.5 C 354.667,169.834 354.5,227.168 354,284.5C 353.209,285.745 352.709,287.078 352.5,288.5C 352.158,289.338 351.492,289.672 350.5,289.5C 345.976,291.043 341.976,293.377 338.5,296.5C 335.802,296.845 333.802,298.178 332.5,300.5C 328.827,302 325.494,304 322.5,306.5C 319.008,307.41 316.008,309.076 313.5,311.5C 311.708,313.569 309.374,314.903 306.5,315.5C 302.399,317.385 298.399,319.552 294.5,322C 295.094,322.464 295.761,322.631 296.5,322.5C 296.833,322.5 297.167,322.5 297.5,322.5C 296.081,323.451 294.415,323.784 292.5,323.5C 290.973,323.427 289.973,324.094 289.5,325.5C 286.008,326.41 283.008,328.076 280.5,330.5C 275.291,332.719 270.624,335.719 266.5,339.5C 266.591,341.698 265.925,342.031 264.5,340.5C 261.071,342.448 257.405,343.948 253.5,345C 252.619,345.708 251.953,346.542 251.5,347.5C 247.827,349 244.494,351 241.5,353.5C 236.657,355.418 232.323,358.084 228.5,361.5C 227.924,364.124 226.59,364.791 224.5,363.5C 219.657,365.418 215.323,368.084 211.5,371.5C 211.5,372.167 211.167,372.5 210.5,372.5C 210.44,371.957 210.107,371.624 209.5,371.5C 204.674,374.92 199.34,376.587 193.5,376.5C 190.753,373.793 187.42,372.127 183.5,371.5C 181.716,371.107 180.05,370.441 178.5,369.5C 178.5,369.167 178.5,368.833 178.5,368.5C 175.024,365.377 171.024,363.043 166.5,361.5C 164.326,361.25 162.659,360.25 161.5,358.5C 159.371,356.05 156.704,354.383 153.5,353.5C 146.147,347.162 137.814,342.496 128.5,339.5C 126.973,339.573 125.973,338.906 125.5,337.5C 124.341,335.75 122.674,334.75 120.5,334.5C 118.067,334.727 116.401,333.727 115.5,331.5C 111.705,328.095 107.372,325.429 102.5,323.5C 100.62,323.771 99.287,323.104 98.5,321.5C 93.1028,317.802 87.4361,314.468 81.5,311.5C 75.4832,307.665 69.3165,303.998 63,300.5C 62.6012,300.728 62.4346,301.062 62.5,301.5C 61.5416,301.953 60.7083,302.619 60,303.5C 59.5065,301.866 59.3398,300.199 59.5,298.5C 54.9612,294.731 49.9612,291.731 44.5,289.5C 43.1639,287.99 41.9973,286.323 41,284.5C 40.5,240.168 40.3333,195.835 40.5,151.5C 41.0058,156.001 42.0058,160.501 43.5,165C 42.3796,167.278 43.213,168.778 46,169.5C 47.5929,167.715 49.0929,167.548 50.5,169C 50.1667,170 49.8333,171 49.5,172C 50.0353,174.109 51.0353,174.609 52.5,173.5C 53.1667,155.004 53.8333,136.671 54.5,118.5C 54.1677,171.669 54.5011,224.669 55.5,277.5C 58.309,281.923 62.309,284.923 67.5,286.5C 71.1826,287.675 74.5159,289.341 77.5,291.5C 81.3233,294.916 85.6566,297.582 90.5,299.5C 93.1612,302.502 96.4945,304.502 100.5,305.5C 102.179,305.285 103.179,305.952 103.5,307.5C 105.181,309.008 107.181,310.008 109.5,310.5C 109.973,311.906 110.973,312.573 112.5,312.5C 114.179,312.285 115.179,312.952 115.5,314.5C 117.612,316.771 120.279,318.104 123.5,318.5C 125.179,318.285 126.179,318.952 126.5,320.5C 128.336,322.588 130.669,323.921 133.5,324.5C 138.326,327.748 143.326,330.748 148.5,333.5C 151.494,336 154.827,338 158.5,339.5C 161.902,341.284 165.402,342.95 169,344.5C 170.107,343.288 170.607,343.621 170.5,345.5C 170.369,346.376 170.702,347.043 171.5,347.5C 174.867,349.225 178.2,350.892 181.5,352.5C 183.434,353.11 185.101,354.11 186.5,355.5C 186.859,357.485 187.692,358.151 189,357.5C 192.02,359.2 195.02,360.866 198,362.5C 198.995,361.934 199.828,361.267 200.5,360.5C 206.668,357.92 212.335,354.586 217.5,350.5C 221.683,348.913 225.35,346.579 228.5,343.5C 228.833,343.5 229.167,343.5 229.5,343.5C 229.435,343.938 229.601,344.272 230,344.5C 237.015,340.254 243.849,335.921 250.5,331.5C 253.175,329.83 255.841,328.164 258.5,326.5C 258.354,324.058 259.187,323.391 261,324.5C 262.11,322.963 263.61,322.297 265.5,322.5C 269.369,320.399 273.369,318.566 277.5,317C 279.24,315.483 280.906,313.983 282.5,312.5C 284.84,311.914 287.007,310.914 289,309.5C 290.308,310.151 291.141,309.485 291.5,307.5C 296.5,305.336 301.167,302.669 305.5,299.5C 308.709,297.735 311.709,295.735 314.5,293.5C 317.663,292.884 319.663,291.551 320.5,289.5C 322.843,288.656 325.176,287.656 327.5,286.5C 332.203,284.728 336.37,282.061 340,278.5C 340.495,276.527 340.662,274.527 340.5,272.5C 341.081,218.326 341.748,173.993 342.5,139.5C 345.518,139.665 348.518,139.498 351.5,139C 351.438,137.094 351.438,135.26 351.5,133.5C 352.281,134.729 352.781,136.062 353,137.5C 353.667,134.5 353.667,131.5 353,128.5C 352.667,129.167 352.333,129.833 352,130.5C 350.556,124.753 350.723,119.253 352.5,114C 352.043,113.586 351.709,113.086 351.5,112.5C 352.233,111.913 353.233,111.913 354.5,112.5 Z M 178.5,178.5 C 179.833,178.5 180.5,179.167 180.5,180.5C 179.833,180.5 179.167,180.5 178.5,180.5C 178.5,179.833 178.5,179.167 178.5,178.5 Z"/></g>
<g><path style="opacity:0.998" fill="#fdfdfd" d="M 197.5,126.5 C 199.122,129.455 201.122,132.122 203.5,134.5C 205.455,138.639 206.955,142.972 208,147.5C 208.414,161.372 208.581,175.039 208.5,188.5C 208.938,188.435 209.272,188.601 209.5,189C 207.197,192.154 205.53,195.654 204.5,199.5C 203.5,199.5 202.5,199.5 201.5,199.5C 198.721,202.955 195.388,205.621 191.5,207.5C 191.058,208.231 190.891,209.231 191,210.5C 189.43,210.33 187.597,209.997 185.5,209.5C 186.609,208.71 187.942,208.21 189.5,208C 185.171,207.914 180.837,208.248 176.5,209C 177.163,210.518 178.163,211.685 179.5,212.5C 183.095,219.362 187.428,225.696 192.5,231.5C 195.238,233.577 197.238,236.243 198.5,239.5C 197.769,242.047 198.769,244.047 201.5,245.5C 202.906,245.973 203.573,246.973 203.5,248.5C 209.452,257.782 215.785,266.782 222.5,275.5C 223.072,277.255 223.906,278.922 225,280.5C 225.5,228.501 225.667,176.501 225.5,124.5C 225.5,123.167 225.5,121.833 225.5,120.5C 255.169,120.333 284.835,120.5 314.5,121C 310.836,128.831 308.169,136.998 306.5,145.5C 288.995,146.167 271.329,146.833 253.5,147.5C 253.178,159.2 253.178,171.2 253.5,183.5C 269.089,184.499 285.422,184.832 302.5,184.5C 302.5,185.5 302.5,186.5 302.5,187.5C 301.262,189.214 300.595,191.214 300.5,193.5C 298.078,198.165 296.411,203.165 295.5,208.5C 280.99,208.171 266.657,208.504 252.5,209.5C 252.5,210.167 252.833,210.5 253.5,210.5C 253.332,230.854 253.165,251.521 253,272.5C 252.617,273.056 252.117,273.389 251.5,273.5C 247.827,275 244.494,277 241.5,279.5C 235.661,282.585 229.994,285.918 224.5,289.5C 224.158,290.338 223.492,290.672 222.5,290.5C 217.657,292.418 213.323,295.084 209.5,298.5C 209.217,299.289 208.717,299.956 208,300.5C 206.198,299.211 205.031,297.544 204.5,295.5C 203.262,292.262 201.262,289.596 198.5,287.5C 196.173,283.546 193.839,279.546 191.5,275.5C 188.225,269.269 184.225,263.603 179.5,258.5C 178.662,258.158 178.328,257.492 178.5,256.5C 176.975,253.437 174.975,250.77 172.5,248.5C 169.888,246.948 168.555,244.614 168.5,241.5C 166.587,237.738 164.421,234.071 162,230.5C 160.608,228.158 159.775,228.158 159.5,230.5C 156.011,231.689 155.678,230.855 158.5,228C 156.699,227.683 156.366,227.016 157.5,226C 156.177,225.184 155.511,224.017 155.5,222.5C 155.155,219.802 153.822,217.802 151.5,216.5C 147.784,214.759 145.784,211.759 145.5,207.5C 141.286,199.937 136.619,192.604 131.5,185.5C 145.677,185.829 159.677,185.496 173.5,184.5C 176.614,184.445 178.948,183.112 180.5,180.5C 181.222,180.082 181.722,179.416 182,178.5C 182.823,169.99 182.657,161.656 181.5,153.5C 180.789,149.618 178.456,147.118 174.5,146C 154.836,145.5 135.169,145.333 115.5,145.5C 114.501,187.663 114.168,229.997 114.5,272.5C 105.833,272.5 97.1667,272.5 88.5,272.5C 88.5,221.833 88.5,171.167 88.5,120.5C 120.168,120.333 151.835,120.5 183.5,121C 188.34,122.594 193.007,124.428 197.5,126.5 Z M 178.5,178.5 C 179.833,178.5 180.5,179.167 180.5,180.5C 179.833,180.5 179.167,180.5 178.5,180.5C 178.5,179.833 178.5,179.167 178.5,178.5 Z"/></g>
<g><path style="opacity:0.529" fill="#9c9e9b" d="M 181.5,153.5 C 182.657,161.656 182.823,169.99 182,178.5C 181.722,179.416 181.222,180.082 180.5,180.5C 180.5,179.167 179.833,178.5 178.5,178.5C 178.369,177.761 178.536,177.094 179,176.5C 179.718,177.451 180.551,177.617 181.5,177C 181.435,169.377 181.435,161.543 181.5,153.5 Z"/></g>
<g><path style="opacity:0.453" fill="#b0b2ae" d="M 115.5,146.5 C 115.5,146.167 115.5,145.833 115.5,145.5C 135.169,145.333 154.836,145.5 174.5,146C 178.456,147.118 180.789,149.618 181.5,153.5C 180.163,152.685 179.163,151.518 178.5,150C 176.048,149.71 173.715,149.044 171.5,148C 171.833,147.667 172.167,147.333 172.5,147C 153.503,146.5 134.503,146.333 115.5,146.5 Z"/></g>
<g><path style="opacity:0.188" fill="#a8aaa5" d="M 197.5,126.5 C 200.647,128.313 202.647,130.98 203.5,134.5C 201.122,132.122 199.122,129.455 197.5,126.5 Z"/></g>
<g><path style="opacity:0.845" fill="#90948c" d="M 306.5,145.5 C 308.169,136.998 310.836,128.831 314.5,121C 284.835,120.5 255.169,120.333 225.5,120.5C 225.5,121.833 225.5,123.167 225.5,124.5C 225.167,124.5 224.833,124.5 224.5,124.5C 223.803,122.929 223.47,121.429 223.5,120C 254.165,119.5 284.832,119.333 315.5,119.5C 315.414,121.677 314.747,123.677 313.5,125.5C 313.709,126.086 314.043,126.586 314.5,127C 311.945,128.258 311.278,130.091 312.5,132.5C 311.478,133.354 310.645,134.354 310,135.5C 309.428,139.163 308.262,142.497 306.5,145.5 Z"/></g>
<g><path style="opacity:0.447" fill="#a9aba8" d="M 203.5,134.5 C 205.942,134.119 206.609,134.786 205.5,136.5C 206.658,139.685 208.325,142.518 210.5,145C 209.167,158.667 209.167,172.333 210.5,186C 209.244,186.417 208.577,187.25 208.5,188.5C 208.581,175.039 208.414,161.372 208,147.5C 206.955,142.972 205.455,138.639 203.5,134.5 Z"/></g>
<g><path style="opacity:0.331" fill="#86a742" d="M 68.5,109.5 C 64.6011,111.96 60.4345,114.96 56,118.5C 56.0316,171.785 55.865,224.785 55.5,277.5C 54.5011,224.669 54.1677,171.669 54.5,118.5C 58.184,113.99 62.8507,110.99 68.5,109.5 Z"/></g>
<g><path style="opacity:0.612" fill="#bebebb" d="M 178.5,180.5 C 179.167,180.5 179.833,180.5 180.5,180.5C 178.948,183.112 176.614,184.445 173.5,184.5C 172.167,184.5 170.833,184.5 169.5,184.5C 171.049,182.595 172.882,182.261 175,183.5C 175.985,182.186 177.152,181.186 178.5,180.5 Z"/></g>
<g><path style="opacity:0.915" fill="#acafab" d="M 302.5,187.5 C 302.5,186.5 302.5,185.5 302.5,184.5C 285.422,184.832 269.089,184.499 253.5,183.5C 270.411,183.825 287.244,183.492 304,182.5C 305.965,184.751 305.465,186.418 302.5,187.5 Z"/></g>
<g><path style="opacity:0.753" fill="#9b9d9a" d="M 169.5,184.5 C 170.833,184.5 172.167,184.5 173.5,184.5C 159.677,185.496 145.677,185.829 131.5,185.5C 132.919,184.549 134.585,184.216 136.5,184.5C 147.47,183.187 158.47,183.187 169.5,184.5 Z"/></g>
<g><path style="opacity:0.588" fill="#a6aa9d" d="M 302.5,187.5 C 303.507,189.899 302.841,191.899 300.5,193.5C 300.595,191.214 301.262,189.214 302.5,187.5 Z"/></g>
<g><path style="opacity:0.965" fill="#87b434" d="M 353.5,109.5 C 353.833,109.5 354.167,109.5 354.5,109.5C 355.091,110.151 355.757,110.818 356.5,111.5C 356.498,169.35 356.498,227.183 356.5,285C 355.051,286.102 353.718,287.269 352.5,288.5C 352.709,287.078 353.209,285.745 354,284.5C 354.5,227.168 354.667,169.834 354.5,112.5C 353.89,111.609 353.557,110.609 353.5,109.5 Z"/></g>
<g><path style="opacity:0.969" fill="#8db936" d="M 47.5,104.5 C 45.1673,107.003 43.0007,109.669 41,112.5C 40.5001,125.496 40.3334,138.496 40.5,151.5C 40.3333,195.835 40.5,240.168 41,284.5C 41.9973,286.323 43.1639,287.99 44.5,289.5C 41.4508,288.575 39.4508,287.075 38.5,285C 38.8106,227.35 38.8106,169.683 38.5,112C 40.9462,109.842 43.4462,107.009 46,103.5C 46.3826,104.056 46.8826,104.389 47.5,104.5 Z"/></g>
<g><path style="opacity:0.01" fill="#c6c6c4" d="M 136.5,184.5 C 134.585,184.216 132.919,184.549 131.5,185.5C 136.619,192.604 141.286,199.937 145.5,207.5C 143.366,206.297 142.032,204.463 141.5,202C 139.975,200.991 138.308,200.491 136.5,200.5C 136.662,198.473 136.495,196.473 136,194.5C 135.25,193.874 134.416,193.374 133.5,193C 133.833,192.667 134.167,192.333 134.5,192C 131.989,189.674 130.656,186.841 130.5,183.5C 132.735,183.205 134.735,183.539 136.5,184.5 Z"/></g>
<g><path style="opacity:0.649" fill="#abadab" d="M 201.5,199.5 C 199.908,203.594 197.075,206.594 193,208.5C 192.617,207.944 192.117,207.611 191.5,207.5C 195.388,205.621 198.721,202.955 201.5,199.5 Z"/></g>
<g><path style="opacity:0.984" fill="#b4b7b0" d="M 300.5,193.5 C 299.694,199.471 297.694,204.804 294.5,209.5C 280.5,209.5 266.5,209.5 252.5,209.5C 266.657,208.504 280.99,208.171 295.5,208.5C 296.411,203.165 298.078,198.165 300.5,193.5 Z"/></g>
<g><path style="opacity:0.047" fill="#dddfda" d="M 252.5,209.5 C 266.5,209.5 280.5,209.5 294.5,209.5C 294.189,210.478 293.522,211.145 292.5,211.5C 279.795,211.234 266.795,210.9 253.5,210.5C 252.833,210.5 252.5,210.167 252.5,209.5 Z"/></g>
<g><path style="opacity:0.376" fill="#b1b4b0" d="M 185.5,209.5 C 182.607,209.031 180.607,210.031 179.5,212.5C 178.163,211.685 177.163,210.518 176.5,209C 180.837,208.248 185.171,207.914 189.5,208C 187.942,208.21 186.609,208.71 185.5,209.5 Z"/></g>
<g><path style="opacity:0.855" fill="#b5b6b4" d="M 179.5,212.5 C 181.433,213.642 182.933,215.308 184,217.5C 187.11,216.327 187.277,216.827 184.5,219C 187.573,222.368 190.24,226.535 192.5,231.5C 187.428,225.696 183.095,219.362 179.5,212.5 Z"/></g>
<g><path style="opacity:0.137" fill="#a5a6a2" d="M 151.5,216.5 C 153.822,217.802 155.155,219.802 155.5,222.5C 153.674,220.853 152.34,218.853 151.5,216.5 Z"/></g>
<g><path style="opacity:0.905" fill="#5b5e59" d="M 224.5,124.5 C 224.833,124.5 225.167,124.5 225.5,124.5C 225.667,176.501 225.5,228.501 225,280.5C 223.906,278.922 223.072,277.255 222.5,275.5C 224.009,276.859 224.676,276.359 224.5,274C 224.109,224.426 224.109,174.593 224.5,124.5 Z"/></g>
<g><path style="opacity:0.55" fill="#8f948a" d="M 197.5,126.5 C 193.007,124.428 188.34,122.594 183.5,121C 151.835,120.5 120.168,120.333 88.5,120.5C 88.5,171.167 88.5,221.833 88.5,272.5C 97.1667,272.5 105.833,272.5 114.5,272.5C 114.168,229.997 114.501,187.663 115.5,145.5C 115.5,145.833 115.5,146.167 115.5,146.5C 115.5,188.833 115.5,231.167 115.5,273.5C 106.249,273.182 97.0828,273.515 88,274.5C 87.5,222.834 87.3333,171.168 87.5,119.5C 121.223,118.844 154.723,119.511 188,121.5C 188.561,120.978 189.228,120.645 190,120.5C 191.896,122.48 194.396,124.48 197.5,126.5 Z"/></g>
<g><path style="opacity:0.149" fill="#a9aba7" d="M 168.5,241.5 C 165.122,238.124 162.122,234.457 159.5,230.5C 159.775,228.158 160.608,228.158 162,230.5C 164.421,234.071 166.587,237.738 168.5,241.5 Z"/></g>
<g><path style="opacity:1" fill="#a8a9a5" d="M 198.5,239.5 C 199.529,241.517 200.529,243.517 201.5,245.5C 198.769,244.047 197.769,242.047 198.5,239.5 Z"/></g>
<g><path style="opacity:0.243" fill="#b3b4b0" d="M 172.5,248.5 C 174.975,250.77 176.975,253.437 178.5,256.5C 176.547,255.374 175.047,253.708 174,251.5C 173.667,251.833 173.333,252.167 173,252.5C 172.51,251.207 172.343,249.873 172.5,248.5 Z"/></g>
<g><path style="opacity:0.263" fill="#aeb0aa" d="M 179.5,258.5 C 184.225,263.603 188.225,269.269 191.5,275.5C 190.448,275.649 189.448,275.483 188.5,275C 188.833,274.667 189.167,274.333 189.5,274C 188.167,271.991 186.5,270.324 184.5,269C 184.426,265.942 182.76,263.609 179.5,262C 180.171,261.014 180.171,259.847 179.5,258.5 Z"/></g>
<g><path style="opacity:0.973" fill="#b0b2ae" d="M 203.5,248.5 C 206.296,251.797 209.296,254.964 212.5,258C 212.167,258.333 211.833,258.667 211.5,259C 217.104,264.305 220.77,269.805 222.5,275.5C 215.785,266.782 209.452,257.782 203.5,248.5 Z"/></g>
<g><path style="opacity:0.039" fill="#a4a79f" d="M 251.5,273.5 C 248.839,276.502 245.505,278.502 241.5,279.5C 244.494,277 247.827,275 251.5,273.5 Z"/></g>
<g><path style="opacity:0.659" fill="#7da635" d="M 55.5,277.5 C 56.397,278.598 57.2303,278.598 58,277.5C 58.3333,278.5 58.6667,279.5 59,280.5C 59.3333,280.167 59.6667,279.833 60,279.5C 62.3435,282.011 64.8435,284.344 67.5,286.5C 62.309,284.923 58.309,281.923 55.5,277.5 Z"/></g>
<g><path style="opacity:0.004" fill="#e1e6db" d="M 241.5,280.5 C 242.043,280.56 242.376,280.893 242.5,281.5C 241.743,282.773 241.077,282.773 240.5,281.5C 241.167,281.5 241.5,281.167 241.5,280.5 Z"/></g>
<g><path style="opacity:0.141" fill="#afb2aa" d="M 241.5,279.5 C 241.5,279.833 241.5,280.167 241.5,280.5C 240.833,280.5 240.5,280.833 240.5,281.5C 235.545,284.285 230.712,287.285 226,290.5C 225.617,289.944 225.117,289.611 224.5,289.5C 229.994,285.918 235.661,282.585 241.5,279.5 Z"/></g>
<g><path style="opacity:0.035" fill="#babdb5" d="M 198.5,287.5 C 201.262,289.596 203.262,292.262 204.5,295.5C 203.257,293.836 201.59,292.669 199.5,292C 199.833,291.667 200.167,291.333 200.5,291C 199.027,290.29 198.36,289.124 198.5,287.5 Z"/></g>
<g><path style="opacity:1" fill="#71982e" d="M 320.5,289.5 C 319.663,291.551 317.663,292.884 314.5,293.5C 316.147,291.674 318.147,290.34 320.5,289.5 Z"/></g>
<g><path style="opacity:0.082" fill="#7ca332" d="M 350.5,289.5 C 350.141,291.485 349.308,292.151 348,291.5C 346,292.167 344.667,293.5 344,295.5C 343.667,295.167 343.333,294.833 343,294.5C 341.951,296.107 340.451,296.773 338.5,296.5C 341.976,293.377 345.976,291.043 350.5,289.5 Z"/></g>
<g><path style="opacity:0.969" fill="#7fa833" d="M 44.5,289.5 C 49.9612,291.731 54.9612,294.731 59.5,298.5C 57.7988,298.034 56.2988,298.034 55,298.5C 54,297.167 53,295.833 52,294.5C 51.2825,295.451 50.4491,295.617 49.5,295C 50.8333,294.333 50.8333,293.667 49.5,293C 47.8659,292.506 46.1992,292.34 44.5,292.5C 44.5,291.5 44.5,290.5 44.5,289.5 Z"/></g>
<g><path style="opacity:0.075" fill="#adafa7" d="M 222.5,290.5 C 218.701,293.952 214.368,296.618 209.5,298.5C 213.323,295.084 217.657,292.418 222.5,290.5 Z"/></g>
<g><path style="opacity:0.243" fill="#7fa937" d="M 77.5,291.5 C 80.3149,292.126 82.8149,293.46 85,295.5C 85.3333,295.167 85.6667,294.833 86,294.5C 87.6336,296.062 89.1336,297.729 90.5,299.5C 85.6566,297.582 81.3233,294.916 77.5,291.5 Z"/></g>
<g><path style="opacity:0.004" fill="#9bc940" d="M 51.5,296.5 C 52.8333,297.167 52.8333,297.167 51.5,296.5 Z"/></g>
<g><path style="opacity:0.965" fill="#71982f" d="M 314.5,293.5 C 311.709,295.735 308.709,297.735 305.5,299.5C 307.61,296.271 310.61,294.271 314.5,293.5 Z"/></g>
<g><path style="opacity:0.012" fill="#a1cb43" d="M 338.5,297.5 C 339.239,297.369 339.906,297.536 340.5,298C 339.563,298.692 338.897,298.525 338.5,297.5 Z"/></g>
<g><path style="opacity:0.231" fill="#749a2e" d="M 338.5,296.5 C 338.5,296.833 338.5,297.167 338.5,297.5C 336.483,298.529 334.483,299.529 332.5,300.5C 333.802,298.178 335.802,296.845 338.5,296.5 Z"/></g>
<g><path style="opacity:0.008" fill="#a0cf41" d="M 332.5,301.5 C 333.043,301.56 333.376,301.893 333.5,302.5C 332.743,303.773 332.077,303.773 331.5,302.5C 332.167,302.5 332.5,302.167 332.5,301.5 Z"/></g>
<g><path style="opacity:0.006" fill="#9ecb3f" d="M 334.5,301.5 C 335.525,301.897 335.692,302.563 335,303.5C 334.536,302.906 334.369,302.239 334.5,301.5 Z"/></g>
<g><path style="opacity:0.941" fill="#80a737" d="M 100.5,305.5 C 96.4945,304.502 93.1612,302.502 90.5,299.5C 91.4959,299.586 92.3292,299.252 93,298.5C 95.0998,301.431 97.5998,303.764 100.5,305.5 Z"/></g>
<g><path style="opacity:0.02" fill="#82a833" d="M 332.5,300.5 C 332.5,300.833 332.5,301.167 332.5,301.5C 331.833,301.5 331.5,301.833 331.5,302.5C 329.589,302.574 328.422,303.574 328,305.5C 327.667,305.167 327.333,304.833 327,304.5C 325.156,305.711 324.322,307.044 324.5,308.5C 323.818,307.757 323.151,307.091 322.5,306.5C 325.494,304 328.827,302 332.5,300.5 Z"/></g>
<g><path style="opacity:1" fill="#739830" d="M 305.5,299.5 C 301.167,302.669 296.5,305.336 291.5,307.5C 295.541,303.81 300.208,301.144 305.5,299.5 Z"/></g>
<g><path style="opacity:0.231" fill="#7ca431" d="M 81.5,311.5 C 78.2286,310.204 74.8952,308.871 71.5,307.5C 69.4706,308.629 69.1373,308.129 70.5,306C 67.6462,304.603 64.9795,303.103 62.5,301.5C 62.4346,301.062 62.6012,300.728 63,300.5C 69.3165,303.998 75.4832,307.665 81.5,311.5 Z"/></g>
<g><path style="opacity:0.533" fill="#73972c" d="M 322.5,306.5 C 319.992,308.924 316.992,310.59 313.5,311.5C 316.008,309.076 319.008,307.41 322.5,306.5 Z"/></g>
<g><path style="opacity:0.98" fill="#7ea634" d="M 103.5,307.5 C 106.089,307.461 108.089,308.461 109.5,310.5C 107.181,310.008 105.181,309.008 103.5,307.5 Z"/></g>
<g><path style="opacity:1" fill="#80ab33" d="M 291.5,307.5 C 291.141,309.485 290.308,310.151 289,309.5C 287.007,310.914 284.84,311.914 282.5,312.5C 284.721,309.553 287.721,307.887 291.5,307.5 Z"/></g>
<g><path style="opacity:0.514" fill="#668630" d="M 109.5,310.5 C 111.027,310.427 112.027,311.094 112.5,312.5C 110.973,312.573 109.973,311.906 109.5,310.5 Z"/></g>
<g><path style="opacity:0.059" fill="#81a934" d="M 81.5,311.5 C 87.4361,314.468 93.1028,317.802 98.5,321.5C 97.8333,321.5 97.1667,321.5 96.5,321.5C 92.1117,319.645 88.1117,317.145 84.5,314C 82.8333,313.667 81.1667,313.333 79.5,313C 80.4158,312.722 81.0825,312.222 81.5,311.5 Z"/></g>
<g><path style="opacity:0.565" fill="#8db73b" d="M 123.5,318.5 C 120.279,318.104 117.612,316.771 115.5,314.5C 116.117,314.389 116.617,314.056 117,313.5C 119.255,315.246 121.421,316.913 123.5,318.5 Z"/></g>
<g><path style="opacity:0.035" fill="#7da331" d="M 306.5,315.5 C 306.918,316.222 307.584,316.722 308.5,317C 304.431,317.46 300.765,319.293 297.5,322.5C 297.167,321.167 296.833,321.167 296.5,322.5C 295.761,322.631 295.094,322.464 294.5,322C 298.399,319.552 302.399,317.385 306.5,315.5 Z"/></g>
<g><path style="opacity:0.914" fill="#7da434" d="M 282.5,312.5 C 280.906,313.983 279.24,315.483 277.5,317C 273.369,318.566 269.369,320.399 265.5,322.5C 265.541,320.255 266.375,319.588 268,320.5C 272.784,317.612 277.617,314.946 282.5,312.5 Z"/></g>
<g><path style="opacity:0.012" fill="#a4d243" d="M 96.5,321.5 C 96.631,322.239 96.4643,322.906 96,323.5C 95.3083,322.563 95.475,321.897 96.5,321.5 Z"/></g>
<g><path style="opacity:0.91" fill="#7da434" d="M 126.5,320.5 C 129.326,320.998 131.66,322.331 133.5,324.5C 130.669,323.921 128.336,322.588 126.5,320.5 Z"/></g>
<g><path style="opacity:0.267" fill="#668a28" d="M 292.5,323.5 C 292.027,324.906 291.027,325.573 289.5,325.5C 289.973,324.094 290.973,323.427 292.5,323.5 Z"/></g>
<g><path style="opacity:0.004" fill="#a1cf42" d="M 100.5,325.5 C 101.833,326.167 101.833,326.167 100.5,325.5 Z"/></g>
<g><path style="opacity:0.004" fill="#9fcf42" d="M 103.5,327.5 C 104.833,328.167 104.833,328.167 103.5,327.5 Z"/></g>
<g><path style="opacity:0.231" fill="#7aa332" d="M 133.5,324.5 C 139.787,326.428 144.787,329.428 148.5,333.5C 143.326,330.748 138.326,327.748 133.5,324.5 Z"/></g>
<g><path style="opacity:0.459" fill="#749932" d="M 258.5,326.5 C 255.841,328.164 253.175,329.83 250.5,331.5C 252.193,328.318 254.859,326.652 258.5,326.5 Z"/></g>
<g><path style="opacity:0.008" fill="#7ea532" d="M 102.5,323.5 C 107.372,325.429 111.705,328.095 115.5,331.5C 112.658,330.828 110.158,329.494 108,327.5C 106.16,328.833 105.66,328.666 106.5,327C 105.24,325.887 104.073,325.72 103,326.5C 102.517,325.552 102.351,324.552 102.5,323.5 Z"/></g>
<g><path style="opacity:0.086" fill="#799e2f" d="M 289.5,325.5 C 288.402,326.397 288.402,327.23 289.5,328C 288.551,328.617 287.718,328.451 287,327.5C 285.13,329.219 282.963,330.219 280.5,330.5C 283.008,328.076 286.008,326.41 289.5,325.5 Z"/></g>
<g><path style="opacity:0.004" fill="#a2d043" d="M 112.5,332.5 C 113.833,333.167 113.833,333.167 112.5,332.5 Z"/></g>
<g><path style="opacity:0.31" fill="#7ea634" d="M 148.5,333.5 C 150.17,333.751 151.67,334.418 153,335.5C 153.333,335.167 153.667,334.833 154,334.5C 155.366,336.362 156.866,338.028 158.5,339.5C 154.827,338 151.494,336 148.5,333.5 Z"/></g>
<g><path style="opacity:0.949" fill="#7ca433" d="M 250.5,331.5 C 243.849,335.921 237.015,340.254 230,344.5C 229.601,344.272 229.435,343.938 229.5,343.5C 232.312,341.078 235.145,338.744 238,336.5C 239.558,337.345 240.558,336.679 241,334.5C 241.414,334.957 241.914,335.291 242.5,335.5C 244.952,333.607 247.619,332.274 250.5,331.5 Z"/></g>
<g><path style="opacity:0.365" fill="#779c2f" d="M 280.5,330.5 C 279.833,331.5 279.167,332.5 278.5,333.5C 275.921,333.852 274.087,335.186 273,337.5C 272.667,337.167 272.333,336.833 272,336.5C 270.654,338.342 268.821,339.342 266.5,339.5C 270.624,335.719 275.291,332.719 280.5,330.5 Z"/></g>
<g><path style="opacity:0.004" fill="#a4d143" d="M 278.5,333.5 C 279.833,334.167 279.833,334.167 278.5,333.5 Z"/></g>
<g><path style="opacity:0.004" fill="#a3cf44" d="M 281.5,333.5 C 282.833,334.167 282.833,334.167 281.5,333.5 Z"/></g>
<g><path style="opacity:0.965" fill="#759a2f" d="M 120.5,334.5 C 122.674,334.75 124.341,335.75 125.5,337.5C 124.833,337.5 124.167,337.5 123.5,337.5C 122.1,336.9 121.1,335.9 120.5,334.5 Z"/></g>
<g><path style="opacity:0.004" fill="#a4d443" d="M 123.5,337.5 C 122.833,338.167 122.833,338.167 123.5,337.5 Z"/></g>
<g><path style="opacity:0.008" fill="#a4d243" d="M 120.5,338.5 C 121.833,339.167 121.833,339.167 120.5,338.5 Z"/></g>
<g><path style="opacity:0.004" fill="#a1cd42" d="M 125.5,342.5 C 126.833,343.167 126.833,343.167 125.5,342.5 Z"/></g>
<g><path style="opacity:0.004" fill="#a4d342" d="M 132.5,343.5 C 132.833,343.5 133.167,343.5 133.5,343.5C 133.315,344.17 132.981,344.17 132.5,343.5 Z"/></g>
<g><path style="opacity:0.988" fill="#82ac32" d="M 128.5,339.5 C 137.814,342.496 146.147,347.162 153.5,353.5C 152.504,353.414 151.671,353.748 151,354.5C 149.383,353.461 148.217,352.461 147.5,351.5C 146.014,349.441 144.18,348.775 142,349.5C 141.943,347.09 140.776,345.756 138.5,345.5C 138.167,344.167 137.833,344.167 137.5,345.5C 136.167,344.833 134.833,344.167 133.5,343.5C 133.167,342.167 132.833,342.167 132.5,343.5C 131.778,343.082 131.278,342.416 131,341.5C 129.692,342.151 128.859,341.485 128.5,339.5 Z"/></g>
<g><path style="opacity:0.729" fill="#84ac34" d="M 264.5,340.5 C 263.694,341.728 262.694,342.728 261.5,343.5C 259.295,343.852 257.462,344.852 256,346.5C 255.667,346.167 255.333,345.833 255,345.5C 254.077,346.759 253.243,348.092 252.5,349.5C 251.893,349.376 251.56,349.043 251.5,348.5C 252.833,348.167 252.833,347.833 251.5,347.5C 251.953,346.542 252.619,345.708 253.5,345C 257.405,343.948 261.071,342.448 264.5,340.5 Z"/></g>
<g><path style="opacity:0.008" fill="#a6d244" d="M 261.5,343.5 C 262.833,344.167 262.833,344.167 261.5,343.5 Z"/></g>
<g><path style="opacity:0.004" fill="#a3d242" d="M 137.5,345.5 C 137.833,345.5 138.167,345.5 138.5,345.5C 138.315,346.17 137.981,346.17 137.5,345.5 Z"/></g>
<g><path style="opacity:0.455" fill="#7da633" d="M 170.5,345.5 C 175.167,347.269 178.833,349.602 181.5,352.5C 178.2,350.892 174.867,349.225 171.5,347.5C 170.702,347.043 170.369,346.376 170.5,345.5 Z"/></g>
<g><path style="opacity:0.427" fill="#7ba632" d="M 228.5,343.5 C 225.35,346.579 221.683,348.913 217.5,350.5C 220.103,348.401 222.603,346.068 225,343.5C 225.986,344.171 227.153,344.171 228.5,343.5 Z"/></g>
<g><path style="opacity:0.004" fill="#a4d343" d="M 248.5,350.5 C 249.833,351.167 249.833,351.167 248.5,350.5 Z"/></g>
<g><path style="opacity:0.008" fill="#a3d444" d="M 147.5,351.5 C 146.833,352.167 146.833,352.167 147.5,351.5 Z"/></g>
<g><path style="opacity:0.302" fill="#789e30" d="M 251.5,347.5 C 251.5,347.833 251.5,348.167 251.5,348.5C 250.29,348.932 249.29,349.599 248.5,350.5C 246.54,350.851 244.707,352.184 243,354.5C 242.617,353.944 242.117,353.611 241.5,353.5C 244.494,351 247.827,349 251.5,347.5 Z"/></g>
<g><path style="opacity:0.271" fill="#7ea730" d="M 153.5,353.5 C 156.704,354.383 159.371,356.05 161.5,358.5C 160.577,359.303 159.577,359.47 158.5,359C 156.806,357.065 155.139,355.231 153.5,353.5 Z"/></g>
<g><path style="opacity:0.027" fill="#799e2f" d="M 241.5,353.5 C 237.701,356.952 233.368,359.618 228.5,361.5C 232.323,358.084 236.657,355.418 241.5,353.5 Z"/></g>
<g><path style="opacity:0.988" fill="#7ba432" d="M 217.5,350.5 C 212.335,354.586 206.668,357.92 200.5,360.5C 202.444,359.072 204.111,357.239 205.5,355C 209.617,353.773 213.617,352.273 217.5,350.5 Z"/></g>
<g><path style="opacity:0.325" fill="#86b135" d="M 186.5,355.5 C 188.086,356.413 189.586,356.413 191,355.5C 193.3,359.397 196.467,361.063 200.5,360.5C 199.828,361.267 198.995,361.934 198,362.5C 195.02,360.866 192.02,359.2 189,357.5C 187.692,358.151 186.859,357.485 186.5,355.5 Z"/></g>
<g><path style="opacity:0.478" fill="#73972d" d="M 224.5,363.5 C 223.473,365.194 222.139,366.527 220.5,367.5C 219.761,367.369 219.094,367.536 218.5,368C 218.07,368.92 217.736,369.753 217.5,370.5C 216.914,370.291 216.414,369.957 216,369.5C 214.67,370.582 213.17,371.249 211.5,371.5C 215.323,368.084 219.657,365.418 224.5,363.5 Z"/></g>
<g><path style="opacity:0.008" fill="#a6d743" d="M 172.5,366.5 C 171.833,367.167 171.833,367.167 172.5,366.5 Z"/></g>
<g><path style="opacity:0.914" fill="#7ba431" d="M 166.5,361.5 C 171.024,363.043 175.024,365.377 178.5,368.5C 177.504,368.414 176.671,368.748 176,369.5C 175.578,367.574 174.411,366.574 172.5,366.5C 170.249,365.182 168.249,363.516 166.5,361.5 Z"/></g>
<g><path style="opacity:0.008" fill="#a5d643" d="M 220.5,367.5 C 221.833,368.167 221.833,368.167 220.5,367.5 Z"/></g>
<g><path style="opacity:0.004" fill="#a8d843" d="M 178.5,369.5 C 177.833,370.167 177.833,370.167 178.5,369.5 Z"/></g>
<g><path style="opacity:0.094" fill="#7ca431" d="M 210.5,372.5 C 207.968,373.596 205.635,374.929 203.5,376.5C 201.589,376.574 200.422,377.574 200,379.5C 198.355,379.307 196.521,379.14 194.5,379C 194.833,378.667 195.167,378.333 195.5,378C 194.584,377.722 193.918,377.222 193.5,376.5C 199.34,376.587 204.674,374.92 209.5,371.5C 210.107,371.624 210.44,371.957 210.5,372.5 Z"/></g>
<g><path style="opacity:0.008" fill="#88b336" d="M 183.5,371.5 C 187.42,372.127 190.753,373.793 193.5,376.5C 192.504,376.414 191.671,376.748 191,377.5C 189.997,374.844 188.33,373.844 186,374.5C 185.667,373.833 185.333,373.167 185,372.5C 182.821,373.84 182.321,373.507 183.5,371.5 Z"/></g>
<g><path style="opacity:0.012" fill="#a7d643" d="M 203.5,376.5 C 204.833,377.167 204.833,377.167 203.5,376.5 Z"/></g>
</svg>
